# xmcd
#
# Track frame offsets: 
#        150
#        13299
#        26225
#        37867
#        51837
#        65810
#        81021
#        94657
#        106700
#        119471
#        131203
#        144403
#        157111
#        170008
#        180392
#        190424
#        201478
#        214852
#        227980
#        239555
#        254029
#        264665
#        277332
#        288830
#        302429
#        315783
#        326689
#        340602
#
# Disc length: 4725 seconds
#
# Revision: 0
# Processed by: cddbd v1.5.2PL0 Copyright (c) Steve Scherf et al.
# Submitted via: ExactAudioCopy v1.1
#
DISCID=ab12731c
DTITLE=B.B. King - Akella Presents - Greatest Bluesmen - vol. 11  CD2
DYEAR=2017
DGENRE=Blues
TTITLE0=Bad Luck
TTITLE1=Be Careful With A Fool
TTITLE2=Bim Bam
TTITLE3=Blind Love
TTITLE4=Boogie Rock
TTITLE5=Cant't We Take It Over
TTITLE6=Crying Won't Help You
TTITLE7=Don't You Want A Man Like Me
TTITLE8=Everyday I Have The Blues
TTITLE9=Hard Working Woman
TTITLE10=I Need You So Bad
TTITLE11=I Wonder
TTITLE12=I'm Cracking Up Over You
TTITLE13=I'm In Love
TTITLE14=Jump With You Baby
TTITLE15=Let's Do The Boogie
TTITLE16=Lonely And Blue
TTITLE17=On My Word Of Honor
TTITLE18=Sixteen Tons
TTITLE19=Sweet Little Angel
TTITLE20=Talkin' The Blues
TTITLE21=Ten Long Years
TTITLE22=The Key To My Kingdom
TTITLE23=Three O'Clock Blues
TTITLE24=Woke Up This Morning
TTITLE25=You Don't Know
TTITLE26=You Know I Love You
TTITLE27=You Upset Me Baby
EXTD=
EXTT0=
EXTT1=
EXTT2=
EXTT3=
EXTT4=
EXTT5=
EXTT6=
EXTT7=
EXTT8=
EXTT9=
EXTT10=
EXTT11=
EXTT12=
EXTT13=
EXTT14=
EXTT15=
EXTT16=
EXTT17=
EXTT18=
EXTT19=
EXTT20=
EXTT21=
EXTT22=
EXTT23=
EXTT24=
EXTT25=
EXTT26=
EXTT27=
PLAYORDER=
